<svg xmlns="http://www.w3.org/2000/svg" width="69" height="17" viewBox="0 0 69 17">
  <g fill="#7301FF" fill-rule="evenodd">
    <path fill-rule="nonzero" d="M62.1185006 3.35516907C61.5888162 2.86459666 60.9732867 2.4758048 60.30273 2.20825942L59.5856569 1.91898559C58.5522098 1.58390097 57.4701745 1.42325946 56.3839523 1.44365299 55.3135073 1.42317472 54.247308 1.58388521 53.2304601 1.91898559 53.0871813 1.96651885 52.9914357 2.01473115 52.8481569 2.06226441 52.0764493 2.3659647 51.3639775 2.80264094 50.7431125 3.35245288 50.0298501 3.97975005 49.4733486 4.76531705 49.1181541 5.64627217 48.7228003 6.61571085 48.5278444 7.65516733 48.5450388 8.70198171 48.5232151 9.749183 48.7183454 10.7895695 49.1181541 11.7576912 49.4733486 12.6386464 50.0298501 13.4242134 50.7431125 14.0515105 51.4553621 14.6961305 52.3050541 15.170091 53.2277439 15.4374446 54.2499584 15.7494641 55.3124664 15.9096182 56.3812361 15.9127772 57.4674583 15.9331707 58.5494936 15.7725292 59.5829407 15.4374446 59.6786863 15.4374446 59.7262195 15.3899113 59.8219651 15.341699 60.4514125 15.1263533 61.0461564 14.8205177 61.5874861 14.4338137 61.7550336 14.3181311 61.9139011 14.1903563 62.0628187 14.0515105 62.76147 13.4111961 63.3154558 12.6291802 63.6877772 11.7576912 64.083131 10.7882526 64.2780868 9.74879608 64.2608925 8.70198171 64.2827162 7.65478041 64.0875859 6.61439396 63.6877772 5.64627217 63.3326207 4.77752244 62.7948964 3.99525177 62.111031 3.35245288M51.0731292 11.5689163C50.7655871 10.6288376 50.6202342 9.64328531 50.6432927 8.65444845 50.6240201 7.66584857 50.7692803 6.68092534 51.0731292 5.7399806 51.3313858 4.98627899 51.7561185 4.3004401 52.3157844 3.733398 52.6327498 3.42120543 52.9855988 3.14767911 53.3669484 2.91854213 53.6242186 2.76252948 53.8973789 2.63437176 54.1818043 2.53623891 55.6519849 2.02630986 57.25105 2.02630986 58.7212306 2.53623891 59.41848 2.77295166 60.0435619 3.18414049 60.5370011 3.73068182 61.0805047 4.31027469 61.502962 4.99243937 61.7796563 5.73726441 62.0871984 6.67734308 62.2325513 7.6628954 62.2094928 8.65173226 62.232538 9.64056831 62.0871855 10.6261184 61.7796563 11.5662001 61.5213997 12.3199017 61.096667 13.0057406 60.5370011 13.5727827 60.1938167 13.9416173 59.7897865 14.248717 59.3425582 14.480668 59.1517461 14.5764135 58.9127217 14.67148 58.6736973 14.7672256 57.934796 15.017866 57.1601275 15.1469774 56.379878 15.1495288 55.615017 15.151098 54.8555252 15.0217983 54.1342711 14.7672256 53.4370216 14.5305129 52.8119398 14.119324 52.3185006 13.5727827 52.1752217 13.4295039 52.0794762 13.2862251 51.9361973 13.1429462 51.5737616 12.6623224 51.283884 12.1310708 51.0758453 11.5662001M47.7838276 8.56345621C47.7826076 7.68167436 47.62156 6.80741599 47.308495 5.98307927 46.992959 5.22262218 46.5196524 4.5377741 45.9198448 3.97378049 45.9200297 3.96111811 45.9150811 3.94892012 45.9061265 3.93996552 45.8971719 3.93101091 45.8849739 3.92606235 45.8723115 3.92624723 45.2516186 3.35313534 44.5195746 2.91395519 43.7217711 2.63605876 42.8274995 2.3435087 41.8914441 2.19900615 40.950582 2.20825942 40.0248644 2.19568152 39.1037793 2.34104348 38.2269263 2.6380959 37.4187287 2.89335612 36.6819987 3.33534759 36.0763858 3.92828437 35.4655546 4.50051766 34.9911996 5.20276716 34.6884146 5.98307927 34.3487544 6.86641915 34.1872088 7.8082297 34.213082 8.75426829 34.1872088 9.70030689 34.3487544 10.6421174 34.6884146 11.5254573 35.0081655 12.2962693 35.4794617 12.9950162 36.0743487 13.5802522 36.6974287 14.1388959 37.4297385 14.5620493 38.2248891 14.8229074 39.103564 15.1124996 40.0233914 15.2576631 40.9485449 15.2527439 41.8895192 15.2613399 42.8255774 15.1161488 43.7197339 14.8229074 44.5197924 14.573132 45.2543454 14.1486824 45.8702744 13.5802522 46.4803681 13.0078091 46.9540158 12.3055759 47.2562084 11.5254573 47.5958687 10.6421174 47.7574143 9.70030689 47.731541 8.75426829 47.7647247 8.69628322 47.7811788 8.63023192 47.7790743 8.56345621M45.7242794 8.70673503C45.7621861 9.58275239 45.6350323 10.4580863 45.3494457 11.287112 45.153162 11.9441325 44.8099555 12.5478788 44.3458149 13.052633 43.9302707 13.5234387 43.4050225 13.8844885 42.816602 14.1037971 41.6142063 14.5498391 40.2917111 14.5498391 39.0893154 14.1037971 38.515414 13.8842715 38.0060711 13.5236913 37.6083149 13.0553492 37.1539671 12.5435173 36.8120587 11.9420547 36.604684 11.2898282 36.3396832 10.4557729 36.2105993 9.58451395 36.2223808 8.70945122 36.2105993 7.83438849 36.3396832 6.96312952 36.604684 6.12907428 36.8009677 5.47205371 37.1441743 4.86830742 37.6083149 4.36355322 38.0151067 3.90452637 38.5217634 3.54491863 39.0893154 3.31238914 40.2917111 2.86634719 41.6142063 2.86634719 42.816602 3.31238914 43.4190675 3.53088259 43.9599443 3.89146713 44.3933481 4.36355322 44.8476794 4.8753969 45.1895857 5.47685584 45.3969789 6.12907428 45.6443528 6.96607815 45.7573477 7.83703274 45.7317489 8.70945122"/>
    <path d="M9.60443459,5.69652162 C10.0342711,4.93191519 10.7031319,3.83321785 11.0854351,3.16367794 C11.6116962,2.30400499 11.9933204,1.63446508 12.2323448,1.34790743 C12.3645384,1.13318487 12.5082537,0.925772483 12.6628603,0.726579823 C12.6153271,0.726579823 12.5671147,0.726579823 12.5671147,0.774113082 C12.4600757,0.813190241 12.3460308,0.82938323 12.2323448,0.821646341 L11.6592295,0.821646341 C11.3038342,0.824481029 10.9498609,0.776461392 10.6080654,0.679046563 C9.70018016,2.35153825 6.54600887,7.41654656 6.40273004,7.70310421 C6.1643847,7.41654656 3.01021341,2.35153825 2.10504435,0.679046563 C2.05256755,0.67254628 1.999951,0.690002005 1.96176552,0.726579823 C1.86601996,0.726579823 1.77095344,0.774113082 1.67520787,0.774113082 C1.5926179,0.766605064 1.50961708,0.783110908 1.43618348,0.821646341 L0.429836475,0.821646341 C0.296947109,0.818564984 0.166388302,0.786099206 0.0475332594,0.726579823 C0.0475332594,0.679046563 0.0475332594,0.679046563 0,0.679046563 C0.143278825,0.869858647 0.23902439,1.06134978 0.429836475,1.30037417 C0.620648559,1.63514412 1.05116408,2.25579268 1.57674612,3.11614468 C1.95904933,3.78500554 2.6279102,4.88166574 3.05774667,5.64898836 C3.48758315,6.41631098 3.96563193,7.27394678 4.44368071,8.03787417 C5.01679601,9.04150499 5.35156596,9.61462029 5.44731153,9.80339523 L5.44731153,10.4247228 C5.44731153,11.2395787 5.44731153,12.0972145 5.39977827,12.9093542 C5.35224501,13.6739606 5.35224501,15.8720344 5.30403271,16.6366408 C5.99263347,16.4450321 6.72047628,16.4450321 7.40907705,16.6366408 C7.36154379,15.8720344 7.36154379,13.6739606 7.31333149,12.9093542 C7.26579823,12.0944983 7.26579823,11.2368625 7.26579823,10.4247228 L7.26579823,9.80543237 C7.60056818,9.23231707 7.93465909,8.61098947 8.26942905,8.03991131 C8.65173226,7.27530488 9.12978104,6.46316519 9.60715078,5.69855876"/>
    <path fill-rule="nonzero" d="M16.5782428,2.6380959 C16.5252131,2.55097885 16.492488,2.45303559 16.4824972,2.35153825 C16.2548759,2.44485111 16.0114261,2.49349497 15.7654241,2.49481707 C15.539439,2.4898231 15.3148739,2.45767724 15.0965632,2.39907151 L15.0490299,2.39907151 C15.0014967,2.49481707 15.0014967,2.58988359 14.9532844,2.68562916 C14.1384285,4.83616962 11.2259978,12.0510394 9.84074279,14.6789496 C9.78683899,14.8109992 9.72305412,14.9387959 9.64993071,15.0612528 C10.3385315,14.8696441 11.0663743,14.8696441 11.7549751,15.0612528 C11.8507206,14.7746951 12.5195815,13.197949 13.2359756,11.3339662 C13.5712236,11.3419867 13.906617,11.326102 14.2396064,11.2864329 L17.3455654,11.2864329 C17.6647918,11.2772117 17.9842492,11.2931051 18.3009839,11.3339662 C19.0180571,13.19727 19.6387057,14.729199 19.7819845,15.0612528 C20.4705852,14.8696441 21.1984281,14.8696441 21.8870288,15.0612528 C21.8139054,14.9387959 21.7501205,14.8109992 21.6962167,14.6789496 C20.3075665,12.0035061 17.3930987,4.78863636 16.5782428,2.6380959 M15.7178908,10.4742932 C15.2880543,10.4742932 13.854587,10.42676 13.4722838,10.42676 C14.4759146,7.84638304 15.5773282,5.02698171 15.7178908,4.50139967 C15.8611696,5.02698171 16.960546,7.84638304 17.9634978,10.42676 C17.5811946,10.42676 16.1477273,10.4742932 15.7178908,10.4742932"/>
    <path d="M33.4009424 10.3316935L33.4009424 7.17752217C33.4009424 6.3626663 33.4009424 5.60077605 33.4484756 4.78863636 33.4960089 4.02402993 33.4960089 3.16367794 33.5442212 2.35153825 33.202459 2.44918259 32.848485 2.49743098 32.4930571 2.49481707 32.1376292 2.49743098 31.7836552 2.44918259 31.441893 2.35153825 31.4894263 3.21189024 31.5376386 4.02402993 31.5376386 4.78863636 31.5851718 5.55324279 31.5851718 6.36538248 31.5851718 7.12998891L31.5851718 8.22868625C31.0120565 8.22868625 30.4864745 8.22868625 29.9602134 8.27621951L26.1378603 8.27621951C25.6122783 8.27621951 25.0866962 8.27621951 24.5129019 8.22868625L24.5129019 7.12998891C24.5129019 6.31513304 24.5129019 5.55324279 24.5604351 4.78863636 24.6079684 4.02402993 24.6086475 3.16639412 24.6588969 2.35153825 24.3171347 2.44918259 23.9631607 2.49743098 23.6077328 2.49481707 23.2513959 2.49769059 22.8964888 2.44943969 22.5538525 2.35153825 22.6013858 3.16639412 22.6013858 4.02402993 22.6495981 4.78863636 22.6978104 5.55324279 22.6971314 6.36538248 22.6971314 7.17752217L22.6971314 10.3310144C22.6971314 11.1458703 22.6971314 11.9077605 22.6495981 12.7199002 22.6020649 13.4845067 22.6020649 14.2966463 22.5538525 15.0612528 23.2424533 14.8696441 23.9702961 14.8696441 24.6588969 15.0612528 24.6113636 14.2966463 24.6113636 13.4845067 24.5631513 12.7199002 24.514939 11.9552938 24.5156181 11.1431541 24.5156181 10.3310144L24.5156181 9.13657151 31.5851718 9.13657151 31.5851718 10.3310144C31.5851718 11.1458703 31.5851718 11.9077605 31.5376386 12.7199002 31.4901053 13.4845067 31.4901053 14.2966463 31.441893 15.0612528 32.1304938 14.8696441 32.8583366 14.8696441 33.5469374 15.0612528 33.4994041 14.2966463 33.4994041 13.5320399 33.4511918 12.7199002 33.4511918 11.9050443 33.4036585 11.0949418 33.4036585 10.3310144M68.9035338 1.58693182C68.9035338 1.53939856 68.8560006 1.49118625 68.8560006 1.44365299L68.8560006 1.39611973C68.8560006 1.34858647 68.8084673 1.30037417 68.760255 1.25284091L68.760255 1.2046286C68.6770625 1.11124103 68.5804953 1.03069202 68.4736973.965604213 68.3721168.905619535 68.2568635.872656622 68.1389274.869858647L68.0431818.869858647C67.9038819.822105505 67.7526453.822105505 67.6133453.869858647 67.4700665.917391907 67.374321.917391907 67.2785754 1.01313747 67.2310421 1.06067073 67.1828298 1.06067073 67.1352966 1.10888304L67.0877633 1.1564163C67.0877633 1.20394956 67.04023 1.20394956 67.04023 1.25216186 66.9846116 1.37651114 66.9367601 1.50419071 66.8969512 1.63446508L66.8969512 1.87348947C66.7536724 3.40270233 66.5621813 5.83980044 66.4671147 6.84275222 66.1805571 10.2834812 65.8457871 12.4788387 65.7500416 13.1022034L66.1323448 13.1022034C66.2644219 13.1113643 66.3938436 13.1437772 66.514648 13.197949 66.6579268 12.5766214 66.9899806 10.3785477 67.8048365 7.0335643 68.0438609 6.07814579 68.9517461 2.11183481 68.9517461 2.06430155L68.9517461 1.97195122C68.9568256 1.84277864 68.9407697 1.71364377 68.9042129 1.589648M66.5621813 15.0619318C66.4789888 14.9685442 66.3824215 14.8879952 66.2756236 14.8229074 66.1376015 14.7606254 65.993574 14.7126162 65.8457871 14.6796286L65.4159507 14.6796286C65.2887496 14.6759886 65.1663623 14.7283693 65.0811807 14.8229074 64.9668011 14.8831273 64.8808781 14.9861373 64.8421563 15.1094651 64.7798787 15.2474889 64.7318697 15.3915159 64.6988775 15.5393016 64.675008 15.6815862 64.675008 15.8268533 64.6988775 15.969138 64.7378352 16.0842932 64.7857409 16.1962246 64.8421563 16.303908 64.9253557 16.3972884 65.0219219 16.4778364 65.128714 16.5429324 65.2667361 16.6052144 65.4107636 16.6532236 65.5585504 16.6862112L65.9883869 16.6862112C66.115588 16.6898512 66.2379752 16.6374705 66.3231569 16.5429324 66.4375365 16.4827125 66.5234595 16.3797025 66.5621813 16.2563747 66.6177997 16.1320254 66.6656512 16.0043459 66.7054601 15.8740715 66.7293296 15.7317868 66.7293296 15.5865197 66.7054601 15.444235 66.687183 15.307616 66.6381978 15.1769114 66.5621813 15.0619318"/>
  </g>
</svg>
