<svg width="16" height="16" xmlns="http://www.w3.org/2000/svg"><g fill="context-fill" fill-opacity="context-fill-opacity"><path d="M4.784 11.286H.941A.935.935 0 0 1 0 10.357c0-.513.421-.928.941-.928h.941V3.857C1.882 2.831 2.725 2 3.765 2h7.53c1.039 0 1.881.831 1.881 1.857v1.674a5.68 5.68 0 0 0-2.823-.745c-3.119 0-5.647 2.494-5.647 5.571 0 .317.027.627.078.929z"/><path d="M15.071 9.639c0 .566-.091 1.084-.275 1.553-.183.47-.442.838-.776 1.105-.335.267-.723.401-1.165.401-.295 0-.556-.07-.783-.21a1.205 1.205 0 0 1-.49-.55h-.095a2.06 2.06 0 0 1-1.643.76c-.705 0-1.26-.21-1.667-.628-.406-.418-.61-.99-.61-1.718 0-.829.267-1.497.801-2.004.534-.507 1.23-.76 2.091-.76.343 0 .72.032 1.132.097.412.065.752.142 1.019.233l-.138 2.882c0 .546.152.82.454.82.255 0 .458-.184.61-.552.151-.367.227-.847.227-1.44 0-.633-.134-1.192-.4-1.678a2.698 2.698 0 0 0-1.127-1.11c-.483-.256-1.036-.384-1.657-.384-.805 0-1.504.163-2.097.49a3.29 3.29 0 0 0-1.366 1.411c-.316.615-.474 1.325-.474 2.13 0 1.085.293 1.917.88 2.497.588.58 1.44.87 2.555.87.422 0 .886-.047 1.392-.14a9.325 9.325 0 0 0 1.493-.403v1.132c-.852.357-1.798.536-2.837.536-1.514 0-2.694-.393-3.54-1.179-.847-.786-1.27-1.878-1.27-3.277 0-.97.216-1.852.648-2.643A4.67 4.67 0 0 1 7.81 6.017c.798-.45 1.717-.675 2.757-.675.876 0 1.658.177 2.348.53.689.354 1.22.857 1.595 1.51.374.652.561 1.404.561 2.257zm-6.117.737c0 .829.342 1.243 1.027 1.243.359 0 .631-.124.819-.374.187-.25.3-.655.34-1.217l.078-1.303a3.314 3.314 0 0 0-.687-.064c-.498 0-.885.153-1.162.46-.277.306-.415.724-.415 1.255z"/></g></svg>
