<?xml version="1.0" encoding="UTF-8"?>
<svg width="16px" height="16px" viewBox="0 0 16 16" version="1.1" xmlns="http://www.w3.org/2000/svg" xmlns:xlink="http://www.w3.org/1999/xlink">
    <!-- Generator: Sketch 51 (57462) - http://www.bohemiancoding.com/sketch -->
    <title>Group 3</title>
    <desc>Created with Sketch.</desc>
    <defs></defs>
    <g id="Page-1" stroke="none" stroke-width="1" fill="none" fill-rule="evenodd">
        <g id="Group-3" transform="translate(0.000000, 2.000000)" fill="#000000" fill-rule="nonzero">
            <path d="M4.78396088,9.28571429 L0.941176471,9.28571429 C0.421379059,9.28571429 -6.36568236e-17,8.86997865 0,8.35714286 C6.36568236e-17,7.84430702 0.421379059,7.42857143 0.941176471,7.42857143 L1.88235294,7.42857143 L1.88235294,1.85714286 C1.88235294,0.831471179 2.72511106,0 3.76470588,0 L11.2941176,0 C12.3337125,0 13.1764706,0.831471179 13.1764706,1.85714286 L13.1764706,3.53107223 C12.3458634,3.05702694 11.3815166,2.78571429 10.3529412,2.78571429 C7.23415671,2.78571429 4.70588235,5.28012782 4.70588235,8.35714286 C4.70588235,8.67351847 4.73261064,8.98373496 4.78396088,9.28571429 Z" id="Combined-Shape"></path>
            <path d="M15.0712316,7.63895089 C15.0712316,8.20480194 14.9796271,8.7225086 14.7964154,9.19208634 C14.6132038,9.66166416 14.3543215,10.0300512 14.019761,10.2972587 C13.6852006,10.5644661 13.2968772,10.6980678 12.8547794,10.6980678 C12.5600475,10.6980678 12.2991739,10.6283198 12.0721508,10.4888218 C11.8451275,10.3493239 11.6818326,10.1656215 11.582261,9.93770923 L11.4866728,9.93770923 C11.0565236,10.4446175 10.5088881,10.6980678 9.84375002,10.6980678 C9.13878324,10.6980678 8.58318217,10.488824 8.17693015,10.0703299 C7.77067812,9.65183598 7.56755514,9.0791168 7.56755514,8.35215542 C7.56755514,7.52302646 7.83440296,6.85501788 8.36810662,6.34810965 C8.90181027,5.84120142 9.59880085,5.58775111 10.4590993,5.58775111 C10.8016255,5.58775111 11.1789961,5.62016918 11.5912224,5.68500627 C12.0034488,5.74984338 12.3429828,5.82745026 12.6098345,5.91782925 L12.4724264,8.8001186 C12.4724264,9.34632205 12.623773,9.61941964 12.9264706,9.61941964 C13.1813738,9.61941964 13.3844968,9.43571729 13.5358456,9.06830702 C13.6871944,8.70089684 13.7628677,8.22052008 13.7628677,7.62716239 C13.7628677,6.99450949 13.6294438,6.43554349 13.3625919,5.95024762 C13.09574,5.46495176 12.7203608,5.09459996 12.236443,4.83918108 C11.7525252,4.58376221 11.1999112,4.45605468 10.5785846,4.45605468 C9.77404621,4.45605468 9.07506424,4.61912737 8.48161765,4.94527762 C7.88817105,5.27142788 7.43313577,5.74198098 7.11649816,6.35695104 C6.79986055,6.97192109 6.64154411,7.68217138 6.64154411,8.48772321 C6.64154411,9.57227106 6.93527586,10.4043347 7.52274816,10.983939 C8.11022046,11.5635434 8.96154467,11.8533412 10.0767464,11.8533412 C10.4989298,11.8533412 10.9629264,11.80717 11.46875,11.7148263 C11.9745736,11.6224826 12.472424,11.4878985 12.9623161,11.31107 L12.9623161,12.4427664 C12.1099835,12.8003529 11.1640677,12.9791434 10.1245404,12.9791434 C8.61105248,12.9791434 7.431147,12.5861972 6.5847886,11.800293 C5.7384302,11.0143887 5.31525736,9.92199826 5.31525736,8.52308869 C5.31525736,7.55249701 5.53132443,6.67131511 5.96346507,5.8795166 C6.39560571,5.08771809 7.01094883,4.46686307 7.80951287,4.01693289 C8.60807691,3.56700272 9.5271088,3.34204101 10.566636,3.34204101 C11.4428659,3.34204101 12.2254868,3.51886682 12.9145221,3.87252372 C13.6035574,4.22618062 14.1352616,4.72915178 14.5096507,5.38145229 C14.8840399,6.0337528 15.0712316,6.78624481 15.0712316,7.63895089 Z M8.95358456,8.37573239 C8.95358456,9.20486134 9.29610565,9.61941964 9.98115812,9.61941964 C10.3396157,9.61941964 10.6124378,9.4946592 10.7996324,9.2451346 C10.9868269,8.99561 11.1003368,8.58989309 11.1401655,8.02797154 L11.2178309,6.7253418 C11.0147048,6.68211706 10.7856936,6.66050502 10.5307904,6.66050502 C10.0329325,6.66050502 9.64560489,6.81375404 9.36879595,7.1202567 C9.09198697,7.42675935 8.95358456,7.84524707 8.95358456,8.37573239 Z" id="@"></path>
        </g>
    </g>
</svg>